<svg width="187" height="28" fill="none" xmlns="http://www.w3.org/2000/svg"><g clip-path="url(#a)"><path d="M48.4 24.29c-2.02 0-3.85-.438-5.488-1.315a10.032 10.032 0 0 1-3.83-3.687c-.915-1.563-1.372-3.325-1.372-5.288s.467-3.725 1.4-5.288a9.825 9.825 0 0 1 3.83-3.659c1.64-.895 3.469-1.343 5.489-1.343 1.639 0 3.134.286 4.487.857a9.153 9.153 0 0 1 3.43 2.487l-2.4 2.258c-1.449-1.562-3.23-2.344-5.346-2.344-1.372 0-2.6.305-3.687.915a6.388 6.388 0 0 0-2.544 2.487c-.61 1.067-.915 2.277-.915 3.63 0 1.353.305 2.563.915 3.63a6.586 6.586 0 0 0 2.544 2.515c1.086.591 2.315.887 3.687.887 2.115 0 3.897-.791 5.345-2.373l2.401 2.287a9.105 9.105 0 0 1-3.458 2.486c-1.353.572-2.85.858-4.488.858ZM72.465 19.374H62.46l-1.973 4.63h-3.83l9.004-20.008h3.659l9.032 20.008h-3.887l-2.001-4.63Zm-1.23-2.916-3.772-8.746-3.745 8.746h7.518ZM93.989 24.004l-4.088-5.86c-.171.02-.428.03-.771.03h-4.517v5.83h-3.715V3.996h8.232c1.734 0 3.239.286 4.516.857 1.296.572 2.286 1.391 2.972 2.458.686 1.068 1.03 2.335 1.03 3.802 0 1.505-.372 2.801-1.115 3.887-.724 1.087-1.773 1.896-3.145 2.43l4.602 6.574H93.99Zm-.086-12.891c0-1.277-.42-2.258-1.258-2.944-.838-.686-2.067-1.029-3.687-1.029h-4.345v7.975h4.345c1.62 0 2.849-.343 3.687-1.03.839-.704 1.258-1.695 1.258-2.972ZM114.782 19.374h-10.005l-1.972 4.63h-3.83l9.004-20.008h3.658l9.033 20.008h-3.888l-2-4.63Zm-1.23-2.916-3.773-8.746-3.744 8.746h7.517ZM140.993 3.996v20.008h-3.058l-11.033-13.548v13.548h-3.688V3.996h3.059l11.033 13.548V3.996h3.687ZM159.017 13.771h3.516v7.975c-1.029.82-2.229 1.448-3.601 1.887a13.819 13.819 0 0 1-4.231.657c-2.039 0-3.877-.438-5.516-1.315-1.639-.896-2.925-2.125-3.859-3.687-.934-1.563-1.401-3.325-1.401-5.288s.467-3.725 1.401-5.288c.934-1.563 2.22-2.782 3.859-3.659 1.658-.895 3.515-1.343 5.573-1.343 1.677 0 3.202.276 4.574.829 1.372.552 2.525 1.362 3.458 2.43l-2.343 2.286c-1.525-1.524-3.364-2.287-5.517-2.287-1.41 0-2.668.296-3.773.887a6.59 6.59 0 0 0-2.573 2.486c-.609 1.067-.914 2.287-.914 3.659 0 1.334.305 2.534.914 3.602a6.797 6.797 0 0 0 2.573 2.515c1.105.61 2.353.915 3.744.915 1.563 0 2.935-.343 4.116-1.03v-6.23ZM180.411 19.374h-10.004l-1.973 4.63h-3.83l9.004-20.008h3.659l9.032 20.008h-3.887l-2.001-4.63Zm-1.229-2.916-3.773-8.746-3.745 8.746h7.518ZM14 0c3.537 0 6.767 1.312 9.232 3.475l-2.705 2.3A10.455 10.455 0 0 0 14 3.5C8.201 3.5 3.5 8.201 3.5 14S8.201 24.5 14 24.5c2.466 0 4.734-.85 6.526-2.274l2.705 2.3A13.946 13.946 0 0 1 14 28C6.268 28 0 21.732 0 14S6.268 0 14 0Z" fill="#67A42B"/><path d="M23.17 19.117a10.453 10.453 0 0 0 1.33-5.118c0-1.857-.483-3.602-1.329-5.115l2.705-2.3A13.934 13.934 0 0 1 28 14c0 2.724-.778 5.267-2.124 7.417l-2.706-2.3Z" fill="#F0851A"/><circle cx="14" cy="14" r="6" fill="#7FB344"/></g><defs><clipPath id="a"><path fill="#fff" d="M0 0h186.299v28H0z"/></clipPath></defs></svg>