<svg xmlns="http://www.w3.org/2000/svg" width="1131" height="198" viewBox="0 0 1131 198" fill="none" class="header__logo"><path fill="#243F53" fill-rule="evenodd" d="M141.3.5c10.6 0 16.6 7 16.6 16.9v116.8c0 8.2-6 14.1-14.6 14.1-8.3 0-14.3-5.9-14.3-14.1V47.7L94.6 102c-4.4 6.9-8.8 9.1-15.2 9.1s-10.9-2.2-15.3-9L30 48v86.1c0 8.2-6 14.1-14.5 14.1C7 148.3 1 142.4 1 134.2V19.4C1 7.8 8 .4 20.2.4c10.9 0 16.4 5.8 23.1 16.3l38 61.1L122 12.3C126.7 5 131.6.5 141.3.5m40 92.4a57.5 57.5 0 1 1 57.5 57.7A57.5 57.5 0 0 1 181.3 93m86.8 0c0-17.6-12.2-31.5-29-31.5-17.2 0-29.6 14-29.6 31.5 0 17.6 12.4 31.7 29.5 31.7 16.9 0 29.1-14.1 29.1-31.7M378 35.4c25.6 0 42.3 17.6 42.3 46v53c0 8.2-5.8 14-14.1 14s-14.4-5.8-14.4-14V85.6c0-14.8-8.7-24.2-22.4-24.2-13.8 0-22.4 9.4-22.4 24.2v48.8c0 8.2-5.7 14-14 14s-14.1-5.8-14.1-14V51.6c0-8.2 5.7-14 13.8-14 7.9 0 13.2 4.6 14.1 11.7a38 38 0 0 1 31.2-14m174.7 48.4c0 9.8-5.8 16.2-16.7 16.2h-65.6a31 31 0 0 0 31.4 26.2c16.7 0 22.7-8 30.5-8 6.7 0 11.3 4.1 11.3 10.7 0 12.4-18.7 21.7-42.7 21.7A57.5 57.5 0 0 1 441.5 93a55.7 55.7 0 0 1 57-57.5c34.7 0 54 24.9 54 48.4m-55-25c-13.9 0-23.6 9.7-26.8 23.6H524C521.4 67 511 58.9 497.6 58.9m158-21.4c9.3 0 16 6.9 11.6 18.8l-40 105.4c-8.8 23.7-22.6 33.8-41 33.8-15.3 0-28.7-7.1-28.7-18 0-6 4.4-11.7 12-11.7 6.2 0 10.6 3.6 18.2 3.6 7.2 0 11.6-4.8 16.2-17.3l1-2.7L562.2 58c-5.7-12.3 1.6-20.6 12-20.6 8.8 0 11.8 5.5 15.5 13.7l27.7 63.2L641 50.4c3-8.6 6.9-13 14.7-13" class="header_logo_money part1" clip-rule="evenodd"></path><path fill="#243F53" fill-rule="evenodd" stroke="#243F53" stroke-width=".7" d="M818.8 35.4c25.6 0 42.5 16.9 42.5 46v53c0 8.2-6 14-14.1 14-8.3 0-14.3-5.8-14.3-14V85.6c0-14.8-8.4-24.2-21.8-24.2s-21.7 9.4-21.7 24.2v48.8c0 8.2-5.7 14-14 14s-14.4-5.8-14.4-14V85.6c0-14.8-8.3-24.2-21.7-24.2s-21.7 9.4-21.7 24.2v48.8c0 8.2-5.8 14-14 14-8.4 0-14.2-5.8-14.2-14V51.6c0-8.2 5.8-14 13.9-14 8 0 13.6 5 14.3 12.6a37 37 0 0 1 30.5-14.8c16.2 0 28.4 7 35.3 19.8a40 40 0 0 1 35.4-19.8Z" class="header_logo_man part2" clip-rule="evenodd"></path><path fill="#243F53" fill-rule="evenodd" d="M997.8 51.6c0-8.2-5.8-14-14-14-8 0-13.5 4.9-14.4 12.2a43 43 0 0 0-33.7-14.4c-30.7 0-53.1 24.6-53.1 57.5 0 34.2 23.8 57.7 53 57.7 14.6 0 26-5.7 33.8-15 .5 7.5 6.2 12.7 14.3 12.7 8.3 0 14.1-5.7 14.1-13.9zm-28.4 41.3c0 17.6-12.2 31.7-29.1 31.7s-29.6-14.1-29.6-31.7 12.5-31.5 29.6-31.5c16.9 0 29.1 14 29.1 31.5" class="header_logo_man part2" clip-rule="evenodd"></path><path fill="#243F53" d="m969.4 49.8-.2.2.4.5.1-.7zm0 85.8h.3v-.9l-.5.7zM983.7 38q6.2.1 10 3.8t3.8 9.8h.6q0-6.4-4-10.3-3.9-3.9-10.4-4zm-14 11.8q.8-5.4 4.5-8.6t9.5-3.2v-.7q-6 .1-10 3.4a14 14 0 0 0-4.6 9zm-34-14c14.4 0 25.7 5.1 33.5 14.2l.5-.5a43 43 0 0 0-34-14.4zm-52.8 57c0-32.6 22.3-57 52.8-57V35c-31 0-53.5 24.8-53.5 57.8zm52.8 57.5c-29.1 0-52.8-23.3-52.8-57.4h-.7c0 34.4 24 58 53.5 58zm33.5-15a42 42 0 0 1-33.5 15v.7c14.6 0 26-5.8 34-15.2zm14.5 12.7c-7.9 0-13.5-5.1-14-12.5h-.6c.4 7.8 6.4 13.2 14.6 13.2zm13.8-13.6q-.1 6.1-3.8 9.8a14 14 0 0 1-10 3.8v.7q6.5-.1 10.4-4 4-3.8 4-10.3zm0-82.8v82.8h.6V51.6zm-57.2 73.3c17 0 29.4-14.3 29.4-32h-.6c0 17.4-12.1 31.4-28.8 31.4zm-29.9-32c0 17.7 12.6 32 29.9 32v-.6c-16.9 0-29.2-14-29.2-31.4zM940.3 61c-17.3 0-29.9 14-29.9 31.8h.7c0-17.4 12.3-31.2 29.2-31.2zm29.4 31.8c0-17.7-12.3-31.8-29.4-31.8v.6c16.7 0 28.8 13.8 28.8 31.2z"></path><path fill="#243F53" fill-rule="evenodd" stroke="#243F53" stroke-width=".7" d="M1086.6 35.4c25.6 0 42.2 17.6 42.2 46v53c0 8.2-5.7 14-14 14s-14.4-5.8-14.4-14V85.6c0-14.8-8.7-24.2-22.4-24.2-13.8 0-22.4 9.4-22.4 24.2v48.8c0 8.2-5.7 14-14 14s-14.1-5.8-14.1-14V51.6c0-8.2 5.7-14 13.8-14 7.9 0 13.2 4.6 14.1 11.7a38 38 0 0 1 31.2-14Z" class="header_logo_man part2" clip-rule="evenodd"></path></svg>
